<svg width="76" height="76" viewBox="0 0 76 76" fill="none" xmlns="http://www.w3.org/2000/svg">
<path d="M37.5559 75.8019C58.2537 75.8019 75.0326 59.023 75.0326 38.3252C75.0326 17.6273 58.2537 0.848389 37.5559 0.848389C16.858 0.848389 0.0791016 17.6273 0.0791016 38.3252C0.0791016 59.023 16.858 75.8019 37.5559 75.8019Z" fill="#E74141"/>
<path d="M19.1694 57.1515H30.6939C31.5737 57.1515 32.3654 56.7116 32.8053 55.9198L45.4735 33.1347C45.8254 32.4309 45.9134 31.5512 45.4735 30.8474L40.0191 20.8184C39.1394 19.1469 36.7641 19.1469 35.8844 20.7304L17.146 53.6325C16.2663 55.2161 17.4099 57.1515 19.1694 57.1515Z" fill="white"/>
<path d="M48.9045 43.6915L42.5704 54.6882C41.9546 55.7439 42.7463 57.1515 44.0659 57.1515H56.7341C57.9658 57.1515 58.8455 55.7439 58.1417 54.6882L51.8076 43.6915C51.1918 42.5479 49.6083 42.5479 48.9045 43.6915Z" fill="white"/>
</svg>
