<svg width="76" height="70" viewBox="0 0 76 70" fill="none" xmlns="http://www.w3.org/2000/svg">
<path d="M35.7536 67.8057C35.7662 67.5283 35.8339 67.2561 35.9528 67.0049C36.0717 66.7538 36.2394 66.5286 36.4462 66.3426C36.6529 66.1565 36.8947 66.0132 37.1575 65.9209C37.4202 65.8287 37.6987 65.7893 37.9768 65.8051C38.2549 65.8209 38.5271 65.8916 38.7776 66.0131C39.0281 66.1345 39.2519 66.3043 39.4362 66.5127C39.6204 66.721 39.7613 66.9637 39.8507 67.2267C39.9402 67.4897 39.9764 67.7678 39.9573 68.0449C39.9193 68.5961 39.6649 69.1101 39.2492 69.4754C38.8335 69.8408 38.2901 70.0281 37.7369 69.9966C37.1837 69.9651 36.6652 69.7175 36.2939 69.3073C35.9226 68.8972 35.7285 68.3576 35.7536 67.8057ZM18.5104 65.5346C18.7513 65.1688 19.1281 64.9133 19.5579 64.8244C19.9877 64.7356 20.4354 64.8206 20.8023 65.0607C21.1693 65.3009 21.4255 65.6766 21.5146 66.1051C21.6038 66.5336 21.5185 66.9799 21.2776 67.3458C21.1583 67.5269 21.0044 67.6829 20.8246 67.8047C20.6449 67.9266 20.4428 68.0119 20.23 68.0559C20.0172 68.0999 19.7977 68.1017 19.5842 68.0611C19.3707 68.0205 19.1673 67.9384 18.9856 67.8195C18.8039 67.7005 18.6475 67.5471 18.5253 67.3679C18.403 67.1887 18.3174 66.9872 18.2733 66.775C18.2292 66.5628 18.2274 66.344 18.2681 66.1312C18.3088 65.9183 18.3911 65.7155 18.5104 65.5343V65.5346ZM55.4946 64.8876C55.6886 64.7897 55.9 64.7309 56.1168 64.7147C56.3336 64.6984 56.5515 64.7249 56.758 64.7928C56.9644 64.8606 57.1555 64.9684 57.3201 65.11C57.4847 65.2515 57.6197 65.4241 57.7173 65.6178C57.8648 65.9092 57.9222 66.2376 57.8825 66.5616C57.8427 66.8856 57.7074 67.1905 57.4938 67.4378C57.2802 67.6852 56.9978 67.8638 56.6824 67.9511C56.3669 68.0384 56.0326 68.0305 55.7217 67.9283C55.4108 67.8262 55.1372 67.6344 54.9356 67.3772C54.734 67.1201 54.6134 66.8091 54.5891 66.4836C54.5648 66.1581 54.6379 65.8327 54.7991 65.5487C54.9602 65.2646 55.2023 65.0345 55.4946 64.8876ZM22.5076 56.8012C22.8787 56.236 23.4599 55.841 24.1231 55.7029C24.7864 55.5648 25.4775 55.695 26.0445 56.0648C26.6115 56.4355 27.0077 57.0153 27.1461 57.6771C27.2844 58.3388 27.1537 59.0282 26.7826 59.5939C26.4091 60.1545 25.8284 60.545 25.1671 60.6802C24.5059 60.8154 23.8178 60.6843 23.2532 60.3154C22.6886 59.9466 22.2933 59.37 22.1536 58.7116C22.0139 58.0532 22.1411 57.3664 22.5076 56.8012ZM50.3025 55.8612C50.6015 55.7091 50.9276 55.6174 51.2622 55.5911C51.5968 55.5649 51.9333 55.6047 52.2525 55.7083C52.5716 55.8118 52.8671 55.9771 53.1222 56.1947C53.3772 56.4122 53.5866 56.6778 53.7386 56.9761C53.9671 57.4226 54.0587 57.9263 54.0018 58.4243C53.9449 58.9223 53.742 59.3926 53.4186 59.7764C53.0952 60.1601 52.6655 60.4404 52.1833 60.5821C51.701 60.7238 51.1876 60.7207 50.7071 60.5732C50.2267 60.4257 49.8004 60.1402 49.4817 59.7526C49.1629 59.365 48.9658 58.8923 48.915 58.3936C48.8641 57.895 48.9618 57.3924 49.1957 56.9487C49.4297 56.5051 49.7895 56.14 50.2304 55.899L50.3025 55.8612ZM35.109 54.3049C35.3694 53.7708 35.7829 53.3258 36.2971 53.0263C36.8113 52.7267 37.4032 52.5861 37.9976 52.6222C39.6518 52.7207 40.9139 54.1361 40.8186 55.786C40.7934 56.2292 40.6698 56.6613 40.4568 57.0511C40.2438 57.4409 39.9467 57.7788 39.5868 58.0402C39.227 58.3017 38.8135 58.4803 38.376 58.5631C37.9386 58.6459 37.4882 58.6309 37.0573 58.5191C36.6264 58.4073 36.2257 58.2015 35.8842 57.9167C35.5428 57.6318 35.2689 57.2749 35.0826 56.8718C34.8962 56.4686 34.8019 56.0292 34.8065 55.5853C34.811 55.1415 34.9144 54.7041 35.109 54.3049ZM8.50008 49.6617C8.99724 49.415 9.57203 49.3741 10.0993 49.548C10.6265 49.7218 11.0635 50.0963 11.3151 50.5899C11.5667 51.0835 11.6125 51.6562 11.4426 52.1833C11.2727 52.7104 10.9008 53.1492 10.4078 53.4042C9.91493 53.6592 9.34092 53.7097 8.81081 53.5448C8.28071 53.3798 7.83745 53.0127 7.57754 52.5234C7.31764 52.0341 7.26215 51.4623 7.42315 50.9324C7.58415 50.4025 7.9486 49.9575 8.43715 49.6943L8.49979 49.6617H8.50008ZM64.8601 50.2587C65.0103 50.0252 65.2055 49.8236 65.4342 49.6657C65.663 49.5078 65.921 49.3967 66.1931 49.3388C66.4652 49.2809 66.7462 49.2773 67.0197 49.3283C67.2932 49.3793 67.5538 49.4839 67.7866 49.636C68.0193 49.788 68.2195 49.9846 68.3756 50.2142C68.5317 50.4439 68.6405 50.7021 68.6959 50.974C68.7513 51.2459 68.752 51.526 68.6982 51.7982C68.6443 52.0704 68.5368 52.3292 68.382 52.5597C68.0733 53.0193 67.5952 53.3388 67.0515 53.4489C66.5078 53.5589 65.9426 53.4506 65.4786 53.1474C65.0145 52.8443 64.6893 52.3708 64.5735 51.8299C64.4577 51.2889 64.5607 50.7243 64.8601 50.2587ZM29.5593 40.9493C30.5612 40.41 31.7149 40.2193 32.8378 40.4074C33.9606 40.5955 34.9885 41.1516 35.7586 41.9877C36.5288 42.8238 36.9972 43.8922 37.0897 45.0236C37.1823 46.1551 36.8936 47.285 36.2695 48.2344C35.8054 48.9447 35.1702 49.5278 34.4219 49.9305C33.6737 50.3331 32.8362 50.5425 31.9859 50.5396C30.8474 50.5387 29.7417 50.1592 28.8438 49.4613C27.946 48.7633 27.3072 47.7867 27.0288 46.6861C26.7503 45.5855 26.8479 44.4237 27.3062 43.3846C27.7646 42.3455 28.5574 41.4886 29.5593 40.9493ZM42.4858 40.5657C43.6467 40.1931 44.9029 40.2462 46.028 40.7153C47.153 41.1845 48.0731 42.0389 48.6222 43.1245C49.8851 45.6375 48.8728 48.6959 46.3571 49.9654C45.6428 50.3266 44.8542 50.5175 44.0533 50.523C42.8338 50.523 41.6545 50.0886 40.7278 49.2984C39.8011 48.5081 39.1879 47.4138 38.9988 46.2127C38.8097 45.0115 39.0572 43.7826 39.6965 42.7472C40.3358 41.7119 41.325 40.9382 42.4858 40.5657ZM17.8472 43.3983C18.1374 43.0621 18.4989 42.7942 18.9054 42.614C19.312 42.4338 19.7536 42.3457 20.1984 42.3562C20.6433 42.3666 21.0802 42.4753 21.4778 42.6744C21.8754 42.8735 22.2238 43.158 22.4979 43.5075C22.7719 43.857 22.9648 44.2627 23.0626 44.6955C23.1604 45.1283 23.1607 45.5773 23.0635 46.0102C22.9663 46.443 22.774 46.8491 22.5004 47.1989C22.2269 47.5488 21.8789 47.8338 21.4816 48.0335C20.8602 48.3457 20.1494 48.4335 19.4703 48.2819C18.7913 48.1304 18.1859 47.7488 17.7574 47.2022C17.3288 46.6556 17.1035 45.9778 17.1199 45.2842C17.1363 44.5907 17.3933 43.9242 17.8472 43.3983ZM53.3978 43.6292C54.3095 42.2443 56.1747 41.8586 57.5635 42.7679C58.9499 43.6789 59.3359 45.5359 58.4274 46.9214C57.5157 48.3061 55.6505 48.6917 54.2617 47.7828C52.8726 46.8735 52.4858 45.0141 53.3978 43.6292ZM20.8106 34.7564C20.9703 31.9821 23.3275 29.8459 26.1128 29.9513C28.8975 30.0567 31.0855 32.3648 31.0344 35.1429C30.984 37.8897 28.7621 40.0972 26.0181 40.1493L25.9243 40.1501H25.6447C22.8508 39.9873 20.7097 37.623 20.8201 34.846L20.8246 34.7534L20.8106 34.7564ZM44.9496 34.6989C45.1117 31.8856 47.5309 29.7358 50.3527 29.8974C51.023 29.9317 51.6798 30.0987 52.2847 30.3887C52.8895 30.6787 53.4304 31.086 53.8757 31.5866C54.5275 32.3141 54.9565 33.2127 55.1117 34.1759C55.2669 35.139 55.1419 36.1263 54.7514 37.0208C54.361 37.9152 53.7215 38.6793 52.9088 39.2225C52.0961 39.7656 51.1442 40.0651 50.166 40.0853L50.0618 40.0865H49.7652C46.9434 39.9249 44.7872 37.5129 44.9493 34.6995L44.9496 34.6989ZM8.63665 34.931C8.67508 34.2565 8.98066 33.6248 9.48616 33.1749C9.99167 32.7249 10.6557 32.4936 11.3323 32.5317C12.0091 32.5706 12.6428 32.8757 13.0941 33.3801C13.5455 33.8844 13.7775 34.5468 13.7393 35.2217C13.7007 35.8963 13.3948 36.528 12.889 36.9778C12.3832 37.4276 11.7189 37.6586 11.0422 37.62C10.3656 37.5815 9.73198 37.2765 9.28085 36.7722C8.82971 36.2679 8.59799 35.6056 8.63665 34.931ZM62.258 34.8156C62.3 34.1435 62.6071 33.5154 63.1122 33.0684C63.6173 32.6215 64.2794 32.392 64.9536 32.4302C65.6279 32.4685 66.2596 32.7712 66.7106 33.2724C67.1616 33.7735 67.3954 34.4323 67.3607 35.1047C67.3218 35.7796 67.0158 36.4115 66.5099 36.8615C66.004 37.3115 65.3396 37.543 64.6627 37.5049C63.9862 37.4661 63.3529 37.1611 62.9019 36.6568C62.451 36.1525 62.2194 35.4903 62.258 34.8159V34.8156ZM1.68293 33.4579L1.74468 33.4602C1.96168 33.472 2.17421 33.5264 2.37007 33.6202C2.56593 33.7141 2.74125 33.8457 2.88597 34.0073C3.03069 34.1689 3.14195 34.3575 3.21336 34.5621C3.28477 34.7668 3.31492 34.9835 3.30209 35.1997C3.28346 35.5223 3.17011 35.8323 2.97614 36.0911C2.78217 36.35 2.51614 36.5462 2.21117 36.6555C1.90619 36.7647 1.57572 36.7822 1.26088 36.7056C0.946037 36.629 0.660725 36.4619 0.440443 36.2249C0.220161 35.9879 0.0746335 35.6916 0.0219678 35.3728C-0.030698 35.054 0.0118234 34.7268 0.144241 34.4319C0.276659 34.137 0.493126 33.8874 0.76671 33.7142C1.04029 33.541 1.35892 33.4519 1.68293 33.4579ZM74.3711 33.2877L74.44 33.2903C74.878 33.3162 75.2878 33.5141 75.5797 33.8406C75.8716 34.1672 76.0218 34.5958 75.9974 35.0325C75.9788 35.3554 75.8653 35.6657 75.6713 35.9249C75.4772 36.184 75.211 36.3806 74.9058 36.4902C74.6005 36.5997 74.2698 36.6174 73.9545 36.5411C73.6393 36.4648 73.3535 36.2978 73.1327 36.0609C72.9118 35.824 72.7657 35.5276 72.7125 35.2085C72.6592 34.8895 72.7012 34.5619 72.8331 34.2664C72.9651 33.9709 73.1812 33.7206 73.4546 33.5466C73.7281 33.3726 74.0468 33.2826 74.3711 33.2877ZM31.9414 19.5219C32.8882 19.5174 33.8176 19.7758 34.6255 20.2682C35.4334 20.7605 36.0879 21.4673 36.5156 22.3095C36.9108 23.0878 37.0994 23.954 37.0633 24.8256C37.0272 25.6971 36.7676 26.5449 36.3094 27.2881C35.8512 28.0312 35.2096 28.6448 34.4458 29.0704C33.6821 29.4959 32.8217 29.7192 31.9467 29.719C30.9978 29.7219 30.0669 29.4607 29.2588 28.9647C28.4507 28.4688 27.7975 27.7578 27.3728 26.9118C26.9821 26.1343 26.7972 25.2702 26.8356 24.4014C26.8739 23.5326 27.1343 22.6881 27.592 21.9478C28.0496 21.2075 28.6894 20.5961 29.4506 20.1715C30.2118 19.747 31.0692 19.5233 31.9414 19.5219ZM44.0115 19.4858C45.1499 19.4873 46.2553 19.8673 47.1528 20.5656C48.0502 21.264 48.6885 22.2408 48.9665 23.3414C49.2445 24.4421 49.1463 25.6038 48.6876 26.6426C48.2289 27.6814 47.4358 28.5381 46.4338 29.0769C45.4319 29.6158 44.2782 29.8061 43.1556 29.6177C42.0329 29.4294 41.0053 28.8731 40.2355 28.037C39.4656 27.2008 38.9974 26.1326 38.9049 25.0013C38.8125 23.87 39.1012 22.7403 39.7252 21.7909C40.1916 21.0822 40.8277 20.5004 41.576 20.098C42.3242 19.6956 43.1612 19.4852 44.0115 19.4858ZM17.5673 23.1125C18.4784 21.7273 20.343 21.3404 21.7324 22.2488C23.1218 23.1569 23.5098 25.0163 22.5993 26.4015C21.6882 27.7867 19.8235 28.1739 18.4341 27.2658C18.1034 27.0501 17.8185 26.7715 17.5959 26.4459C17.3732 26.1204 17.2172 25.7542 17.1367 25.3684C17.0561 24.9826 17.0527 24.5848 17.1266 24.1977C17.2005 23.8106 17.3502 23.4418 17.5673 23.1125ZM54.5188 22.0002C54.8716 21.8226 55.256 21.7161 55.6501 21.6868C56.0443 21.6575 56.4403 21.706 56.8156 21.8295C57.1909 21.953 57.5381 22.149 57.8373 22.4065C58.1365 22.6639 58.3818 22.9777 58.5592 23.3298C59.3065 24.8094 58.7092 26.6129 57.2254 27.3582C55.7413 28.1032 53.9324 27.5076 53.1849 26.0283C52.4377 24.5486 53.035 22.7452 54.5188 21.9999V22.0002ZM7.61628 17.4757C7.92245 17.0101 8.40159 16.6849 8.94829 16.5715C9.21899 16.5154 9.49812 16.5129 9.76976 16.5644C10.0414 16.6158 10.3002 16.72 10.5315 16.8712C10.7627 17.0223 10.9618 17.2174 11.1174 17.4452C11.273 17.6731 11.3821 17.9293 11.4384 18.1992C11.4947 18.4691 11.4971 18.7474 11.4456 19.0182C11.394 19.289 11.2894 19.5471 11.1378 19.7776C10.8317 20.2432 10.3525 20.5685 9.80582 20.6818C9.25912 20.7952 8.68964 20.6874 8.22265 20.3822C7.75567 20.0769 7.42943 19.5992 7.31572 19.0542C7.202 18.5091 7.31012 17.9413 7.61628 17.4757ZM65.5997 16.6262C66.0974 16.3834 66.671 16.346 67.1962 16.5221C67.7213 16.6982 68.1557 17.0736 68.4051 17.5669C68.6545 18.0602 68.6988 18.6316 68.5285 19.1573C68.3581 19.6829 67.9867 20.1204 67.4949 20.3749C66.9958 20.6252 66.4174 20.6677 65.8869 20.4931C65.3563 20.3185 64.917 19.9411 64.6654 19.4437C64.4147 18.9465 64.3722 18.3704 64.5474 17.842C64.7226 17.3136 65.1011 16.8762 65.5997 16.6259V16.6262ZM34.947 14.2477C35.042 12.5946 36.4634 11.331 38.1217 11.4251C39.7798 11.5193 41.0477 12.9356 40.9539 14.5893C40.8604 16.2423 39.4405 17.5071 37.7821 17.4145C36.1223 17.32 34.8531 15.9026 34.947 14.2477ZM23.3914 9.62229C23.6911 9.47173 24.0176 9.3815 24.3523 9.35675C24.687 9.332 25.0233 9.37321 25.342 9.47804C25.6607 9.58286 25.9555 9.74925 26.2098 9.9677C26.464 10.1861 26.6725 10.4524 26.8235 10.7512C26.9746 11.05 27.0651 11.3755 27.0899 11.7092C27.1147 12.0429 27.0734 12.3782 26.9682 12.6959C26.8631 13.0137 26.6962 13.3077 26.4771 13.5611C26.258 13.8146 25.991 14.0225 25.6913 14.1731C25.086 14.4772 24.3843 14.5291 23.7407 14.3174C23.097 14.1056 22.5641 13.6477 22.2591 13.0442C21.9541 12.4407 21.9021 11.7412 22.1144 11.0994C22.3267 10.4577 22.7861 9.92636 23.3914 9.62229ZM49.2065 10.4398C49.4833 10.0177 49.8794 9.68687 50.3447 9.48916C50.8101 9.29144 51.3238 9.23571 51.8209 9.329C52.318 9.4223 52.7762 9.66043 53.1376 10.0133C53.499 10.3662 53.7473 10.8179 53.8513 11.3115C53.9552 11.8051 53.91 12.3183 53.7214 12.7863C53.5329 13.2542 53.2094 13.656 52.7919 13.9407C52.3744 14.2254 51.8816 14.3803 51.3758 14.3859C50.8699 14.3914 50.3738 14.2473 49.9502 13.9718C49.6683 13.789 49.4254 13.5524 49.2354 13.2758C49.0454 12.9992 48.912 12.6879 48.843 12.3597C48.7739 12.0316 48.7704 11.6931 48.8328 11.3636C48.8952 11.0342 49.0222 10.7202 49.2065 10.4398ZM18.9988 2.20484C19.3896 2.00973 19.842 1.97668 20.2572 2.11289C20.6724 2.24911 21.0166 2.54354 21.2149 2.93192C21.4131 3.3203 21.4492 3.77109 21.3153 4.18591C21.1814 4.60073 20.8883 4.9459 20.5001 5.14607C20.3053 5.24537 20.0927 5.30526 19.8746 5.32228C19.6565 5.3393 19.4372 5.31311 19.2293 5.24524C19.0214 5.17736 18.829 5.06913 18.6632 4.92679C18.4975 4.78445 18.3616 4.61081 18.2634 4.41587C18.0677 4.02531 18.0352 3.57332 18.173 3.1589C18.3108 2.74449 18.6078 2.40142 18.9988 2.20484ZM54.7171 2.69026C54.836 2.50886 54.9896 2.35259 55.1691 2.23037C55.3486 2.10814 55.5505 2.02237 55.7633 1.97794C55.976 1.93351 56.1955 1.9313 56.4091 1.97142C56.6227 2.01155 56.8263 2.09323 57.0082 2.2118C57.1902 2.33037 57.3469 2.48351 57.4695 2.66248C57.5921 2.84145 57.6781 3.04273 57.7227 3.25485C57.7673 3.46696 57.7695 3.68575 57.7292 3.89873C57.689 4.1117 57.6071 4.31468 57.4881 4.49608C57.248 4.86245 56.8717 5.11869 56.4421 5.20845C56.0124 5.29821 55.5646 5.21412 55.1971 4.9747C54.8297 4.73527 54.5727 4.36011 54.4826 3.93175C54.3926 3.50339 54.4769 3.05692 54.7171 2.69056V2.69026ZM37.2293 0.127013C37.4913 0.031775 37.7696 -0.010631 38.0482 0.00225681C38.3267 0.0151446 38.5999 0.0830693 38.8519 0.202088C39.1039 0.321106 39.3297 0.488847 39.5162 0.695573C39.7026 0.902299 39.846 1.14389 39.938 1.40632C40.0301 1.66876 40.0689 1.9468 40.0523 2.22432C40.0357 2.50184 39.9639 2.77329 39.8412 3.02294C39.7185 3.27258 39.5472 3.49543 39.3374 3.67856C39.1276 3.86168 38.8834 4.00143 38.619 4.08969C38.0941 4.2649 37.5211 4.22696 37.024 3.98408C36.527 3.74121 36.1458 3.31293 35.9631 2.79196C35.7804 2.27099 35.8109 1.69925 36.0478 1.20049C36.2848 0.701725 36.7093 0.316074 37.2293 0.127013Z" fill="#0033AD"/>
</svg>
