<svg width="29" height="22" viewBox="0 0 29 22" fill="none" xmlns="http://www.w3.org/2000/svg">
<path d="M23.8833 2.2408C22.0983 1.4358 20.185 0.840799 18.1841 0.502465C18.1663 0.499045 18.1479 0.501249 18.1313 0.508774C18.1148 0.516299 18.1011 0.528772 18.092 0.544465C17.847 0.974965 17.574 1.53613 17.3826 1.97947C15.2606 1.66241 13.1032 1.66241 10.9811 1.97947C10.768 1.48814 10.5277 1.00906 10.2613 0.544465C10.2523 0.528578 10.2386 0.515823 10.2221 0.507902C10.2057 0.499981 10.1872 0.49727 10.1691 0.500132C8.16946 0.838465 6.25613 1.43347 4.46996 2.23963C4.45459 2.24608 4.44157 2.25707 4.43263 2.27113C0.80196 7.60863 -0.193207 12.8143 0.295626 17.9546C0.296986 17.9672 0.300894 17.9794 0.307112 17.9904C0.31333 18.0015 0.321727 18.0111 0.331793 18.0188C2.45092 19.5616 4.81452 20.7369 7.32363 21.4955C7.34112 21.5009 7.35983 21.5008 7.37731 21.4954C7.39479 21.49 7.41023 21.4795 7.42163 21.4651C7.96155 20.743 8.44001 19.977 8.85196 19.175C8.85768 19.164 8.86097 19.1519 8.86162 19.1396C8.86227 19.1272 8.86026 19.1149 8.85573 19.1034C8.85119 19.0919 8.84424 19.0815 8.83533 19.0729C8.82643 19.0643 8.81579 19.0577 8.80413 19.0536C8.05046 18.7698 7.32022 18.4273 6.62013 18.0293C6.60755 18.0221 6.59695 18.0119 6.58928 17.9996C6.58161 17.9874 6.57711 17.9734 6.57618 17.9589C6.57526 17.9444 6.57793 17.93 6.58398 17.9168C6.59002 17.9037 6.59923 17.8922 6.61079 17.8835C6.75779 17.775 6.90479 17.6618 7.04479 17.5486C7.05739 17.5385 7.07257 17.532 7.08864 17.5299C7.10471 17.5279 7.12103 17.5303 7.13579 17.537C11.7173 19.595 16.6791 19.595 21.207 17.537C21.2218 17.5299 21.2383 17.5271 21.2545 17.529C21.2708 17.5309 21.2863 17.5373 21.2991 17.5475C21.4391 17.6618 21.585 17.775 21.7331 17.8835C21.7448 17.892 21.7542 17.9033 21.7604 17.9164C21.7666 17.9294 21.7695 17.9438 21.7688 17.9583C21.7681 17.9727 21.7639 17.9868 21.7564 17.9992C21.749 18.0116 21.7386 18.0219 21.7261 18.0293C21.0285 18.4306 20.3028 18.7701 19.541 19.0525C19.5293 19.0567 19.5186 19.0634 19.5097 19.0721C19.5008 19.0808 19.4938 19.0913 19.4893 19.1029C19.4848 19.1145 19.4828 19.1269 19.4834 19.1393C19.4841 19.1518 19.4874 19.1639 19.4931 19.175C19.9131 19.9765 20.3938 20.7395 20.9223 21.464C20.9333 21.4788 20.9486 21.4899 20.9661 21.4958C20.9837 21.5016 21.0026 21.5019 21.0203 21.4966C23.5337 20.7402 25.9012 19.5644 28.0226 18.0188C28.033 18.0116 28.0417 18.0022 28.0481 17.9913C28.0545 17.9805 28.0586 17.9684 28.06 17.9558C28.6433 12.0128 27.0823 6.84913 23.9195 2.27347C23.9117 2.2586 23.8989 2.247 23.8833 2.2408ZM9.53679 14.8245C8.15779 14.8245 7.02029 13.5773 7.02029 12.0478C7.02029 10.5171 8.13563 9.27113 9.53679 9.27113C10.9485 9.27113 12.0755 10.5276 12.0533 12.0478C12.0533 13.5785 10.938 14.8245 9.53679 14.8245ZM18.841 14.8245C17.4608 14.8245 16.3245 13.5773 16.3245 12.0478C16.3245 10.5171 17.4386 9.27113 18.841 9.27113C20.2526 9.27113 21.3796 10.5276 21.3575 12.0478C21.3575 13.5785 20.2538 14.8245 18.841 14.8245Z" fill="white"/>
</svg>
