<svg width="71" height="71" viewBox="0 0 71 71" fill="none" xmlns="http://www.w3.org/2000/svg">
<path d="M69.9383 44.0851C65.1951 63.1131 45.9166 74.6801 26.9157 69.9366C7.88709 65.1935 -3.67985 45.9158 1.06358 26.9152C5.80673 7.88715 25.0572 -3.67978 44.0858 1.06364C63.0867 5.77906 74.6817 25.0567 69.9383 44.0851Z" fill="url(#paint0_linear_158_11)"/>
<path d="M52.4027 31.0763C53.0961 26.3614 49.5183 23.8098 44.5816 22.118L46.1902 15.7114L42.3073 14.7407L40.7542 20.9809C39.728 20.7313 38.6741 20.4817 37.6202 20.2598L39.1733 13.9918L35.2905 13.0211L33.7097 19.4C32.8499 19.2059 32.0179 19.0118 31.2136 18.8176V18.7899L25.8331 17.4586L24.8069 21.6188C24.8069 21.6188 27.6913 22.2844 27.6358 22.3122C29.2167 22.7004 29.494 23.7544 29.4385 24.5864L27.6081 31.8806C27.719 31.9083 27.8577 31.936 28.0241 32.0192C27.8854 31.9915 27.7467 31.9638 27.6081 31.9083L25.0565 42.1146C24.8624 42.5861 24.3631 43.3072 23.2815 43.0298C23.3092 43.0853 20.4526 42.3365 20.4526 42.3365L18.5112 46.8017L23.5866 48.0775C24.5295 48.3271 25.4448 48.549 26.36 48.7986L24.7514 55.2607L28.6343 56.2314L30.2428 49.8248C31.2968 50.1021 32.3507 50.3795 33.3491 50.6291L31.7682 57.008L35.6511 57.9787L37.2597 51.5166C43.9159 52.7646 48.9081 52.2654 50.9882 46.247C52.68 41.4212 50.905 38.62 47.4105 36.7896C49.9898 36.2071 51.9035 34.5153 52.4027 31.0763ZM43.4999 43.5568C42.3073 48.3826 34.1534 45.7755 31.5186 45.1099L33.6542 36.5399C36.289 37.2056 44.7757 38.5091 43.4999 43.5568ZM44.7202 30.9931C43.6109 35.4028 36.8437 33.1563 34.6526 32.6017L36.594 24.836C38.7851 25.3907 45.8574 26.4169 44.7202 30.9931Z" fill="white"/>
<defs>
<linearGradient id="paint0_linear_158_11" x1="35.4809" y1="-0.016979" x2="35.4809" y2="70.9931" gradientUnits="userSpaceOnUse">
<stop stop-color="#F9AA4B"/>
<stop offset="1" stop-color="#F7931A"/>
</linearGradient>
</defs>
</svg>
