<svg width="337" height="65" viewBox="0 0 337 65" fill="none" xmlns="http://www.w3.org/2000/svg">
<path d="M337 50C337 58.2843 330.284 65 322 65L15 65C6.71572 65 -5.87108e-07 58.2843 -1.31134e-06 50L-4.37114e-06 15C-5.09537e-06 6.71573 6.71572 -1.64321e-06 15 -2.36744e-06L322 -2.92062e-05C330.284 -2.99305e-05 337 6.7157 337 15L337 50Z" fill="#101010" fill-opacity="0.51"/>
<rect x="55" y="23" width="109" height="8" rx="1" fill="url(#paint0_linear_157_7)"/>
<rect x="55" y="36" width="70" height="8" rx="1" fill="url(#paint1_linear_157_7)"/>
<g clip-path="url(#clip0_157_7)">
<path d="M22.8368 33.8435C22.8368 33.8435 20 33.8435 20 31.979C20 30.8505 21.1651 27.514 22.0263 25.257C22.4822 23.8832 23.7992 23 25.2683 23H41.8837C43.454 23 44.8218 23.9813 45.227 25.4533L46.848 30.9486C47.1013 31.8808 46.8987 32.9112 46.1895 33.5981C45.7842 33.9907 45.227 34.236 44.5685 33.8435C42.8968 32.9112 22.8368 33.8435 22.8368 33.8435Z" fill="url(#paint2_linear_157_7)"/>
<path d="M41.1745 44H25.8255C24.1032 44 22.6848 42.6261 22.6848 40.9579V29.6729H44.3152V40.9088C44.3152 42.6261 42.9475 44 41.1745 44Z" fill="url(#paint3_linear_157_7)"/>
<path d="M22.6341 33.1565V29.3785C22.6341 28.1518 23.6473 27.1705 24.9137 27.1705H42.0863C43.3527 27.1705 44.3658 28.1518 44.3658 29.3785V33.2546C44.3658 33.7944 44.0619 34.285 43.5553 34.4813C43.2514 34.5794 42.9475 34.6285 42.5422 34.5303C42.0356 34.3341 41.7317 33.8434 41.7317 33.3037V32.764C41.7317 32.1752 41.2251 31.7336 40.6679 31.7336H40.364C39.8574 31.7336 39.4522 32.1261 39.4522 32.6168C39.4522 33.4018 39.0469 34.1869 38.3377 34.5794C37.9325 34.8247 37.4259 34.9719 36.8687 34.9229C35.7036 34.8247 34.7917 33.7944 34.7917 32.6659C34.7917 32.1261 34.3358 31.7336 33.8293 31.7336H33.576C33.0694 31.7336 32.6135 32.1261 32.6135 32.6659C32.6135 33.7453 31.9043 34.6775 30.8405 34.9229C30.5872 34.9719 30.334 34.9719 30.0807 34.9719C28.9156 34.8247 28.1051 33.7944 28.1051 32.6659C28.1051 32.1752 27.6998 31.7336 27.1426 31.7336H26.9906C26.3827 31.7336 25.9268 32.2243 25.9268 32.764V33.1565C25.9268 33.7453 25.6735 34.285 25.167 34.6285C24.7617 34.9229 24.2045 35.0701 23.5966 34.7266C22.9381 34.3831 22.6341 33.7453 22.6341 33.1565Z" fill="#FFBBF8"/>
</g>
<path d="M314 30L317.5 26H308.75H300L296.5 30H314Z" fill="#978D92"/>
<path d="M313.5 42L317 38H308.25H299.5L296 42H313.5Z" fill="#978D92"/>
<path d="M299.5 36L296 32H304.75H313.5L317 36H299.5Z" fill="#978D92"/>
<defs>
<linearGradient id="paint0_linear_157_7" x1="164" y1="23" x2="51" y2="31.0001" gradientUnits="userSpaceOnUse">
<stop stop-color="#A4A0A0" stop-opacity="0.63"/>
<stop offset="1" stop-color="#D9D9D9" stop-opacity="0"/>
</linearGradient>
<linearGradient id="paint1_linear_157_7" x1="125" y1="36" x2="52.2179" y2="39.3091" gradientUnits="userSpaceOnUse">
<stop stop-color="#A4A0A0" stop-opacity="0.63"/>
<stop offset="1" stop-color="#D9D9D9" stop-opacity="0"/>
</linearGradient>
<linearGradient id="paint2_linear_157_7" x1="18.875" y1="20.7895" x2="39.3827" y2="38.2784" gradientUnits="userSpaceOnUse">
<stop stop-color="#FF10B4"/>
<stop offset="1" stop-color="#E4059E"/>
</linearGradient>
<linearGradient id="paint3_linear_157_7" x1="17.75" y1="29.6316" x2="41.7064" y2="44.3755" gradientUnits="userSpaceOnUse">
<stop stop-color="#A61A7A"/>
<stop offset="1" stop-color="#FD8AF1"/>
</linearGradient>
<clipPath id="clip0_157_7">
<rect width="27" height="21" fill="white" transform="translate(20 23)"/>
</clipPath>
</defs>
</svg>
