<svg width="23" height="18" viewBox="0 0 23 18" fill="none" xmlns="http://www.w3.org/2000/svg">
<g clip-path="url(#clip0_40_42)">
<path d="M2.41651 9.29439C2.41651 9.29439 0 9.29439 0 7.69626C0 6.72897 0.992495 3.86916 1.72608 1.93458C2.11445 0.757009 3.2364 0 4.4878 0H18.6417C19.9794 0 21.1445 0.841121 21.4897 2.1028L22.8705 6.81308C23.0863 7.61215 22.9137 8.49533 22.3096 9.08411C21.9644 9.42056 21.4897 9.63084 20.9287 9.29439C19.5047 8.49533 2.41651 9.29439 2.41651 9.29439Z" fill="url(#paint0_linear_40_42)"/>
<path d="M18.0375 18.0001H4.96247C3.4953 18.0001 2.28705 16.8225 2.28705 15.3926V5.71973H20.7129V15.3506C20.7129 16.8225 19.5478 18.0001 18.0375 18.0001Z" fill="url(#paint1_linear_40_42)"/>
<path d="M2.2439 8.70555V5.46723C2.2439 4.41583 3.10694 3.57471 4.18574 3.57471H18.8143C19.8931 3.57471 20.7561 4.41583 20.7561 5.46723V8.78966C20.7561 9.25228 20.4972 9.67284 20.0657 9.84106C19.8067 9.92517 19.5478 9.96723 19.2026 9.88312C18.7711 9.71489 18.5122 9.29433 18.5122 8.83172V8.3691C18.5122 7.86443 18.0807 7.48592 17.606 7.48592H17.3471C16.9156 7.48592 16.5704 7.82237 16.5704 8.24293C16.5704 8.91583 16.2251 9.58873 15.621 9.92517C15.2758 10.1355 14.8443 10.2616 14.3696 10.2196C13.3771 10.1355 12.6004 9.25228 12.6004 8.28499C12.6004 7.82237 12.212 7.48592 11.7805 7.48592H11.5647C11.1332 7.48592 10.7448 7.82237 10.7448 8.28499C10.7448 9.21022 10.1407 10.0093 9.23452 10.2196C9.01876 10.2616 8.803 10.2616 8.58724 10.2616C7.59474 10.1355 6.90431 9.25228 6.90431 8.28499C6.90431 7.86443 6.55909 7.48592 6.08442 7.48592H5.95497C5.43714 7.48592 5.04877 7.90648 5.04877 8.3691V8.70555C5.04877 9.21022 4.83301 9.67284 4.40149 9.96723C4.05628 10.2196 3.58161 10.3457 3.06378 10.0513C2.50281 9.75695 2.2439 9.21022 2.2439 8.70555Z" fill="#FFBBF8"/>
</g>
<defs>
<linearGradient id="paint0_linear_40_42" x1="-0.958333" y1="-1.89474" x2="16.6022" y2="12.9884" gradientUnits="userSpaceOnUse">
<stop stop-color="#FF10B4"/>
<stop offset="1" stop-color="#E4059E"/>
</linearGradient>
<linearGradient id="paint1_linear_40_42" x1="-1.91667" y1="5.68434" x2="18.5599" y2="18.2088" gradientUnits="userSpaceOnUse">
<stop stop-color="#A61A7A"/>
<stop offset="1" stop-color="#FD8AF1"/>
</linearGradient>
<clipPath id="clip0_40_42">
<rect width="23" height="18" fill="white"/>
</clipPath>
</defs>
</svg>
