<svg width="22" height="22" viewBox="0 0 22 22" fill="none" xmlns="http://www.w3.org/2000/svg">
<path fill-rule="evenodd" clip-rule="evenodd" d="M0.180115 1.76142C0.180115 1.29426 0.365692 0.846239 0.696022 0.515909C1.02635 0.18558 1.47438 2.34822e-06 1.94153 2.34822e-06H19.5001C19.7316 -0.000375764 19.9609 0.0449126 20.1749 0.133275C20.3889 0.221637 20.5834 0.351337 20.7471 0.51495C20.9109 0.678562 21.0408 0.872875 21.1294 1.08676C21.218 1.30065 21.2636 1.52991 21.2634 1.76142V19.32C21.2637 19.5516 21.2183 19.7809 21.1298 19.9949C21.0414 20.2089 20.9116 20.4033 20.7479 20.5671C20.5842 20.7309 20.3898 20.8608 20.1759 20.9493C19.9619 21.0379 19.7326 21.0835 19.5011 21.0833H1.94153C1.71014 21.0833 1.48101 21.0377 1.26725 20.9492C1.05348 20.8606 0.859258 20.7308 0.695683 20.5671C0.532108 20.4034 0.402383 20.2091 0.31392 19.9953C0.225457 19.7815 0.179989 19.5524 0.180115 19.321V1.76142ZM8.52528 8.0385H11.3802V9.47217C11.7922 8.648 12.8464 7.90625 14.4305 7.90625C17.4675 7.90625 18.1872 9.54788 18.1872 12.5599V18.1393H15.1138V13.2461C15.1138 11.5307 14.7017 10.5628 13.6552 10.5628C12.2034 10.5628 11.5996 11.6064 11.5996 13.2461V18.1393H8.52528V8.0385ZM3.25445 18.008H6.32878V7.90625H3.25445V18.008ZM6.76866 4.6115C6.77445 4.87473 6.72761 5.13647 6.63089 5.38135C6.53416 5.62623 6.38949 5.84932 6.20538 6.03753C6.02126 6.22575 5.80141 6.37529 5.55872 6.47738C5.31603 6.57948 5.05539 6.63207 4.79209 6.63207C4.5288 6.63207 4.26816 6.57948 4.02547 6.47738C3.78278 6.37529 3.56292 6.22575 3.37881 6.03753C3.1947 5.84932 3.05003 5.62623 2.9533 5.38135C2.85658 5.13647 2.80974 4.87473 2.81553 4.6115C2.82691 4.09482 3.04015 3.60314 3.40959 3.24174C3.77903 2.88035 4.27529 2.67799 4.79209 2.67799C5.3089 2.67799 5.80516 2.88035 6.1746 3.24174C6.54404 3.60314 6.75728 4.09482 6.76866 4.6115Z" fill="white"/>
</svg>
