<svg width="72" height="72" viewBox="0 0 72 72" fill="none" xmlns="http://www.w3.org/2000/svg">
<path d="M36 0C55.8833 0 72 16.1168 72 36C72 55.8833 55.8833 72 36 72C16.1168 72 0 55.8833 0 36C0 16.1168 16.1168 0 36 0ZM24.4575 17.2395L14.9107 22.5765C14.4817 22.7984 14.1226 23.1351 13.8735 23.5491C13.6244 23.963 13.4951 24.4379 13.5 24.921V35.676C13.5 36.648 13.9972 37.5368 14.9107 38.0228L24.4598 43.3597C25.29 43.8435 26.37 43.8435 27.2812 43.3597L33.759 39.7192L38.1577 37.2127L44.6355 33.5745C45.4657 33.0885 46.5435 33.0885 47.457 33.5745L52.5218 36.405C53.3543 36.8888 53.9325 37.7775 53.9325 38.7495V44.4915C53.9325 45.4613 53.4375 46.35 52.5218 46.836L47.4593 49.7475C46.6268 50.2335 45.5467 50.2335 44.6355 49.7475L39.5708 46.917C38.7383 46.431 38.1577 45.5422 38.1577 44.5725V40.851L33.759 43.3597V47.079C33.759 48.0487 34.2562 48.9398 35.1698 49.4235L44.7188 54.7605C45.549 55.2465 46.6268 55.2465 47.5402 54.7605L57.0892 49.4235C57.9195 48.9398 58.5 48.051 58.5 47.079V36.324C58.5049 35.8409 58.3756 35.366 58.1265 34.9521C57.8774 34.5381 57.5183 34.2015 57.0892 33.9795L47.4593 28.5592C46.6268 28.0755 45.5467 28.0755 44.6355 28.5592L38.1577 32.2808L33.759 34.7062L27.2812 38.4255C26.451 38.9115 25.3733 38.9115 24.4598 38.4255L19.3118 35.514C18.4815 35.0303 17.901 34.1415 17.901 33.1695V27.4275C17.901 26.4577 18.3983 25.569 19.3118 25.083L24.3743 22.2525C25.2068 21.7665 26.2867 21.7665 27.2002 22.2525L32.2627 25.083C33.0952 25.569 33.6758 26.4577 33.6758 27.4275V31.149L38.0745 28.6403V24.921C38.0794 24.4379 37.9501 23.963 37.701 23.5491C37.4519 23.1351 37.0928 22.7984 36.6637 22.5765L27.2812 17.2395C26.451 16.7535 25.3733 16.7535 24.4598 17.2395H24.4575Z" fill="#9747FF"/>
</svg>
