<svg width="20" height="17" viewBox="0 0 20 17" fill="none" xmlns="http://www.w3.org/2000/svg">
<path d="M19.8678 2.32013C19.1371 2.64388 18.3523 2.86263 17.5271 2.9615C18.3785 2.45207 19.0155 1.65028 19.3191 0.70575C18.5192 1.18087 17.6438 1.5153 16.7309 1.6945C16.117 1.03901 15.3038 0.604536 14.4177 0.45854C13.5315 0.312545 12.622 0.463193 11.8302 0.887097C11.0385 1.311 10.4088 1.98444 10.039 2.80287C9.66922 3.62129 9.57997 4.53891 9.78513 5.41325C8.16435 5.33187 6.5788 4.91061 5.13137 4.17679C3.68394 3.44298 2.40699 2.41302 1.38337 1.15375C1.03337 1.7575 0.832125 2.4575 0.832125 3.203C0.831735 3.87412 0.997004 4.53496 1.31327 5.12689C1.62953 5.71882 2.08702 6.22353 2.64513 6.59625C1.99787 6.57566 1.36489 6.40076 0.798875 6.08613V6.13863C0.79881 7.0799 1.1244 7.99221 1.72041 8.72075C2.31642 9.44929 3.14613 9.94919 4.06875 10.1356C3.46831 10.2981 2.8388 10.3221 2.22775 10.2056C2.48806 11.0155 2.99512 11.7238 3.67795 12.2312C4.36077 12.7386 5.18518 13.0198 6.03575 13.0354C4.59185 14.1689 2.80865 14.7837 0.973 14.781C0.647833 14.7811 0.322942 14.7621 0 14.7241C1.86329 15.9222 4.0323 16.558 6.2475 16.5555C13.7463 16.5555 17.8456 10.3448 17.8456 4.95825C17.8456 4.78325 17.8413 4.6065 17.8334 4.4315C18.6308 3.85485 19.319 3.14078 19.866 2.32275L19.8678 2.32013Z" fill="white"/>
</svg>
