<svg width="16" height="16" viewBox="0 0 16 16" fill="none" xmlns="http://www.w3.org/2000/svg">
<path d="M13.4635 11.2884C13.0254 10.85 12.5136 10.4922 11.9515 10.2314C12.7442 9.58916 13.25 8.60919 13.25 7.51022C13.25 5.57128 11.633 3.98057 9.69399 4.01032C7.78475 4.04007 6.24651 5.59578 6.24651 7.51022C6.24651 8.60919 6.75401 9.58916 7.545 10.2314C6.98274 10.492 6.47089 10.8498 6.03301 11.2884C5.07752 12.2456 4.53502 13.509 4.50002 14.8565C4.49955 14.8752 4.50283 14.8938 4.50966 14.9112C4.51648 14.9285 4.52672 14.9444 4.53977 14.9578C4.55282 14.9711 4.56841 14.9818 4.58562 14.989C4.60284 14.9963 4.62134 15 4.64002 15H5.62001C5.69526 15 5.75826 14.9405 5.76001 14.8653C5.79326 13.8503 6.20451 12.9001 6.92726 12.1791C7.2971 11.8073 7.73701 11.5125 8.22153 11.3119C8.70605 11.1112 9.22556 11.0087 9.74999 11.0101C10.8157 11.0101 11.8185 11.4249 12.5727 12.1791C13.2937 12.9001 13.705 13.8503 13.74 14.8653C13.7417 14.9405 13.8047 15 13.88 15H14.86C14.8786 15 14.8971 14.9963 14.9144 14.989C14.9316 14.9818 14.9472 14.9711 14.9602 14.9578C14.9733 14.9444 14.9835 14.9285 14.9903 14.9112C14.9971 14.8938 15.0004 14.8752 15 14.8565C14.965 13.509 14.4225 12.2456 13.4635 11.2884ZM9.74999 9.75015C9.15149 9.75015 8.588 9.51741 8.16625 9.09392C7.95459 8.88394 7.7874 8.63348 7.67465 8.35747C7.56191 8.08147 7.50591 7.78559 7.51 7.48747C7.51525 6.91349 7.7445 6.35875 8.14525 5.94752C8.56525 5.51703 9.12699 5.27729 9.72724 5.27029C10.3205 5.26504 10.8962 5.49603 11.3197 5.91077C11.7537 6.336 11.9917 6.90474 11.9917 7.51022C11.9917 8.1087 11.759 8.67044 11.3355 9.09392C11.1277 9.30268 10.8806 9.46817 10.6085 9.58081C10.3363 9.69345 10.0445 9.75101 9.74999 9.75015ZM5.36627 7.97221C5.35052 7.81996 5.34177 7.66597 5.34177 7.51022C5.34177 7.23198 5.36802 6.96074 5.41702 6.69649C5.42927 6.6335 5.39602 6.56875 5.33827 6.5425C5.10027 6.43575 4.88152 6.28876 4.69252 6.10326C4.46982 5.88733 4.29457 5.62735 4.17796 5.3399C4.06136 5.05246 4.00595 4.74387 4.01527 4.43381C4.03102 3.87208 4.25677 3.33834 4.65052 2.93585C5.08277 2.49312 5.66376 2.25162 6.28151 2.25862C6.83976 2.26387 7.37875 2.47912 7.7865 2.86061C7.92475 2.9901 8.04375 3.1336 8.1435 3.28759C8.1785 3.34184 8.24675 3.36459 8.30625 3.34359C8.61425 3.23685 8.93974 3.1616 9.27399 3.1266C9.37199 3.1161 9.42799 3.0111 9.38424 2.9236C8.81549 1.79839 7.6535 1.02141 6.30951 1.00041C4.36877 0.970661 2.75178 2.56136 2.75178 4.49856C2.75178 5.59753 3.25753 6.5775 4.05027 7.21973C3.49378 7.47697 2.98103 7.83221 2.53653 8.2767C1.57754 9.23392 1.03504 10.4974 1.00004 11.8466C0.999577 11.8653 1.00285 11.8839 1.00968 11.9012C1.01651 11.9186 1.02674 11.9345 1.03979 11.9479C1.05284 11.9612 1.06843 11.9719 1.08565 11.9791C1.10286 11.9864 1.12136 11.9901 1.14004 11.9901H2.12179C2.19704 11.9901 2.26004 11.9306 2.26179 11.8553C2.29504 10.8404 2.70628 9.89015 3.42903 9.16917C3.94353 8.65469 4.57352 8.2977 5.26127 8.12445C5.32952 8.10695 5.37502 8.0422 5.36627 7.97221Z" fill="white" stroke="white" stroke-width="0.5"/>
</svg>
